<svg xmlns="http://www.w3.org/2000/svg" xmlns:xlink="http://www.w3.org/1999/xlink" id="Capa_1" width="95" height="95" x="0" y="0" version="1.1" viewBox="0 0 95 95" style="enable-background:new 0 0 95 95" xml:space="preserve"><g><g><path d="M23,35H2c-1.104,0-2,0.896-2,2v21c0,1.104,0.896,2,2,2h21c1.104,0,2-0.896,2-2V37C25,35.896,24.105,35,23,35z"/><path d="M58,35H37c-1.104,0-2,0.896-2,2v21c0,1.104,0.896,2,2,2h21c1.104,0,2-0.896,2-2V37C60,35.896,59.105,35,58,35z"/><path d="M93,35H72c-1.104,0-2,0.896-2,2v21c0,1.104,0.896,2,2,2h21c1.104,0,2-0.896,2-2V37C95,35.896,94.105,35,93,35z"/></g></g></svg>